<svg xmlns="http://www.w3.org/2000/svg" viewBox="0 0 220.8418 15.40479"><defs><style>.a{fill:#e2e20e;}</style></defs><title>rivervalleyconcrete-navbar-logo</title><path class="a" d="M5.14432,21.93664H8.75907c2.27978,0,3.98974.8252,3.98974,3.21a3.0735,3.0735,0,0,1-2.31006,3.165l2.7002,4.67969H11.1741L8.66922,28.53674H6.88407v4.45459H5.14432ZM8.5491,27.14172c1.605,0,2.47461-.66016,2.47461-1.99512s-.86963-1.7998-2.47461-1.7998h-1.665v3.79492Z" transform="translate(-5.14432 -21.03674)"/><path class="a" d="M14.62381,22.16174a.989.989,0,0,1,1.06543-1.02,1.02826,1.02826,0,1,1-1.06543,1.02Zm.21045,2.58008h1.72461v8.24951H14.83426Z" transform="translate(-5.14432 -21.03674)"/><path class="a" d="M18.0286,24.74182h1.77l1.41015,4.43945c.23975.81006.48,1.6499.71973,2.46045h.06006c.24023-.81055.49511-1.65039.72021-2.46045l1.40967-4.43945h1.68018l-2.8501,8.24951H20.95389Z" transform="translate(-5.14432 -21.03674)"/><path class="a" d="M26.63846,28.86633c0-2.66992,1.84521-4.33447,3.76514-4.33447,2.18994,0,3.375,1.5747,3.375,3.8999a4.473,4.473,0,0,1-.09034.88476H28.33377a2.49126,2.49126,0,0,0,2.54981,2.51953,3.50509,3.50509,0,0,0,1.96484-.61425l.6001,1.09472a5.00731,5.00731,0,0,1-2.79.87012A3.96777,3.96777,0,0,1,26.63846,28.86633Zm5.64014-.75c0-1.40967-.645-2.23487-1.84522-2.23487a2.23336,2.23336,0,0,0-2.11474,2.23487Z" transform="translate(-5.14432 -21.03674)"/><path class="a" d="M35.69852,24.74182h1.40967l.13525,1.48486h.04492a2.851,2.851,0,0,1,2.33985-1.69482,2.05637,2.05637,0,0,1,.92968.17968l-.31494,1.5a2.44123,2.44123,0,0,0-.82471-.13476c-.67529,0-1.48486.46484-1.99511,1.76953v5.145H35.69852Z" transform="translate(-5.14432 -21.03674)"/><path class="a" d="M43.87332,21.93664h1.84473l1.63477,5.73c.375,1.25977.63037,2.33984,1.00488,3.61475h.07519c.39014-1.27491.645-2.355,1.00489-3.61475l1.63525-5.73h1.76953L49.39285,32.99133H47.33817Z" transform="translate(-5.14432 -21.03674)"/><path class="a" d="M53.2034,30.8009c0-1.76953,1.49951-2.68457,4.93457-3.05957-.01514-.96-.35986-1.79981-1.57471-1.79981a4.53994,4.53994,0,0,0-2.38525.83985l-.645-1.16993a6.31938,6.31938,0,0,1,3.33008-1.07958c2.05469,0,3,1.30468,3,3.49462v4.96485H58.45291l-.13476-.94531h-.06006a4.09988,4.09988,0,0,1-2.625,1.14062A2.27973,2.27973,0,0,1,53.2034,30.8009Zm4.93457.06054v-2.0249c-2.44482.28516-3.27.915-3.27,1.84522,0,.80957.55518,1.13965,1.29,1.13965A2.90646,2.90646,0,0,0,58.138,30.86144Z" transform="translate(-5.14432 -21.03674)"/><path class="a" d="M62.30838,31.05676v-10.02H64.033V31.1466c0,.46484.19531.62988.40527.62988a1.18637,1.18637,0,0,0,.28467-.03027l.2251,1.30469a2.69773,2.69773,0,0,1-.93018.13574C62.77323,33.18664,62.30838,32.39172,62.30838,31.05676Z" transform="translate(-5.14432 -21.03674)"/><path class="a" d="M66.77811,31.05676v-10.02h1.72461V31.1466c0,.46484.19531.62988.40527.62988a1.18637,1.18637,0,0,0,.28467-.03027l.2251,1.30469a2.69773,2.69773,0,0,1-.93018.13574C67.24295,33.18664,66.77811,32.39172,66.77811,31.05676Z" transform="translate(-5.14432 -21.03674)"/><path class="a" d="M70.66287,28.86633c0-2.66992,1.84473-4.33447,3.76465-4.33447,2.18994,0,3.375,1.5747,3.375,3.8999a4.47389,4.47389,0,0,1-.09033.88476H72.3577a2.49125,2.49125,0,0,0,2.5498,2.51953,3.5051,3.5051,0,0,0,1.96485-.61425l.60009,1.09472a5.00729,5.00729,0,0,1-2.79.87012A3.96741,3.96741,0,0,1,70.66287,28.86633Zm5.63965-.75c0-1.40967-.645-2.23487-1.84521-2.23487a2.23338,2.23338,0,0,0-2.11475,2.23487Z" transform="translate(-5.14432 -21.03674)"/><path class="a" d="M79.06229,36.27648l.33008-1.35058a2.2343,2.2343,0,0,0,.59961.12012c.90039,0,1.42529-.66016,1.72509-1.54493l.165-.56933-3.27-8.18994h1.77l1.52979,4.24462c.24023.73487.49511,1.56055.75,2.3252h.07519c.21-.75.43506-1.5752.645-2.3252l1.31983-4.24462h1.68017l-3.03027,8.74462c-.64453,1.76954-1.51465,2.95508-3.2544,2.95508A2.945,2.945,0,0,1,79.06229,36.27648Z" transform="translate(-5.14432 -21.03674)"/><path class="a" d="M90.80692,27.50158c0-3.6001,2.18994-5.75976,4.98-5.75976a4.25519,4.25519,0,0,1,3.13476,1.395l-.94482,1.10986a2.9374,2.9374,0,0,0-2.16016-.98975c-1.90478,0-3.2251,1.58985-3.2251,4.18457,0,2.625,1.23,4.2295,3.18018,4.2295a3.1933,3.1933,0,0,0,2.44482-1.16895l.93018,1.09473a4.36152,4.36152,0,0,1-3.43506,1.58984C92.9368,33.18664,90.80692,31.11633,90.80692,27.50158Z" transform="translate(-5.14432 -21.03674)"/><path class="a" d="M100.36209,28.86633c0-2.74463,1.84473-4.33447,3.88477-4.33447,2.03955,0,3.88476,1.58984,3.88476,4.33447,0,2.74511-1.84521,4.32031-3.88476,4.32031C102.20682,33.18664,100.36209,31.61144,100.36209,28.86633Zm5.99951,0c0-1.73975-.81-2.90967-2.11474-2.90967-1.29,0-2.1001,1.16992-2.1001,2.90967,0,1.75488.81006,2.91015,2.1001,2.91015C105.55155,31.77648,106.3616,30.62121,106.3616,28.86633Z" transform="translate(-5.14432 -21.03674)"/><path class="a" d="M110.157,24.74182h1.40967l.13526,1.13964h.04492a3.93059,3.93059,0,0,1,2.73-1.3496c1.75439,0,2.53467,1.16992,2.53467,3.26953v5.18994H115.2869v-4.98c0-1.42481-.41992-1.99463-1.39551-1.99463a2.76359,2.76359,0,0,0-2.00977,1.125v5.84961H110.157Z" transform="translate(-5.14432 -21.03674)"/><path class="a" d="M118.9324,28.86633a4.04919,4.04919,0,0,1,4.08008-4.33447,3.54414,3.54414,0,0,1,2.415.94482l-.85547,1.125a2.15244,2.15244,0,0,0-1.46972-.645c-1.39453,0-2.38477,1.16992-2.38477,2.90967,0,1.75488.96,2.91015,2.3252,2.91015a2.82736,2.82736,0,0,0,1.7998-.75l.71973,1.13965a4.08716,4.08716,0,0,1-2.68457,1.02051C120.64237,33.18664,118.9324,31.61144,118.9324,28.86633Z" transform="translate(-5.14432 -21.03674)"/><path class="a" d="M127.27225,24.74182h1.41015l.13477,1.48486h.04492a2.85166,2.85166,0,0,1,2.33985-1.69482,2.05943,2.05943,0,0,1,.93066.17968l-.31543,1.5a2.44613,2.44613,0,0,0-.82519-.13476c-.67481,0-1.48438.46484-1.99415,1.76953v5.145h-1.72558Z" transform="translate(-5.14432 -21.03674)"/><path class="a" d="M132.657,28.86633c0-2.66992,1.84473-4.33447,3.76465-4.33447,2.19043,0,3.375,1.5747,3.375,3.8999a4.47878,4.47878,0,0,1-.08984.88476h-5.35449a2.49125,2.49125,0,0,0,2.5498,2.51953,3.50273,3.50273,0,0,0,1.96485-.61425l.5996,1.09472a5.00528,5.00528,0,0,1-2.78906.87012A3.96787,3.96787,0,0,1,132.657,28.86633Zm5.63965-.75c0-1.40967-.64453-2.23487-1.84472-2.23487a2.232,2.232,0,0,0-2.11426,2.23487Z" transform="translate(-5.14432 -21.03674)"/><path class="a" d="M141.82205,30.29113V26.1217h-1.20019v-1.29l1.29-.08984.19531-2.28028h1.43945v2.28028h2.14453V26.1217h-2.14453v4.18506c0,.98926.34473,1.5,1.2002,1.5a2.46948,2.46948,0,0,0,.88476-.19532l.31543,1.27442a5.274,5.274,0,0,1-1.62011.30078C142.46658,33.18664,141.82205,32.03137,141.82205,30.29113Z" transform="translate(-5.14432 -21.03674)"/><path class="a" d="M146.65115,28.86633c0-2.66992,1.84473-4.33447,3.76465-4.33447,2.19043,0,3.375,1.5747,3.375,3.8999a4.47878,4.47878,0,0,1-.08984.88476h-5.35449a2.49125,2.49125,0,0,0,2.5498,2.51953,3.50273,3.50273,0,0,0,1.96485-.61425l.59961,1.09472a5.00533,5.00533,0,0,1-2.78907.87012A3.96787,3.96787,0,0,1,146.65115,28.86633Zm5.63965-.75c0-1.40967-.64453-2.23487-1.84472-2.23487a2.232,2.232,0,0,0-2.11426,2.23487Z" transform="translate(-5.14432 -21.03674)"/><path class="a" d="M158.63553,27.50158c0-3.6001,2.19043-5.75976,4.98047-5.75976a4.25433,4.25433,0,0,1,3.13476,1.395l-.94531,1.10986a2.9344,2.9344,0,0,0-2.15918-.98975c-1.90527,0-3.22558,1.58985-3.22558,4.18457,0,2.625,1.23046,4.2295,3.17968,4.2295a3.19357,3.19357,0,0,0,2.44532-1.16895l.92968,1.09473a4.35982,4.35982,0,0,1-3.43457,1.58984C160.76639,33.18664,158.63553,31.11633,158.63553,27.50158Z" transform="translate(-5.14432 -21.03674)"/><path class="a" d="M168.19022,28.86633c0-2.74463,1.84472-4.33447,3.88476-4.33447s3.88477,1.58984,3.88477,4.33447c0,2.74511-1.84473,4.32031-3.88477,4.32031S168.19022,31.61144,168.19022,28.86633Zm6,0c0-1.73975-.80957-2.90967-2.11524-2.90967-1.29,0-2.09961,1.16992-2.09961,2.90967,0,1.75488.80957,2.91015,2.09961,2.91015C173.38065,31.77648,174.19022,30.62121,174.19022,28.86633Z" transform="translate(-5.14432 -21.03674)"/><path class="a" d="M177.98514,24.74182h1.41016l.13476,1.15478h.04492a3.59413,3.59413,0,0,1,2.54981-1.36474,2.20237,2.20237,0,0,1,2.28027,1.51464,3.80172,3.80172,0,0,1,2.68457-1.51464c1.72559,0,2.53516,1.16992,2.53516,3.26953v5.18994h-1.72461v-4.98c0-1.42481-.4502-1.99463-1.37988-1.99463a2.75506,2.75506,0,0,0-1.86036,1.125v5.84961h-1.72461v-4.98c0-1.42481-.43554-1.99463-1.37988-1.99463a2.72718,2.72718,0,0,0-1.84472,1.125v5.84961h-1.72559Z" transform="translate(-5.14432 -21.03674)"/><path class="a" d="M192.115,24.74182h1.41016l.13476.8999h.04493a4.18632,4.18632,0,0,1,2.5498-1.10986c2.085,0,3.25488,1.66455,3.25488,4.1997,0,2.835-1.69433,4.45508-3.55468,4.45508a3.4012,3.4012,0,0,1-2.17481-.93066l.06055,1.41015v2.66992H192.115Zm5.61035,4.01953c0-1.72461-.55566-2.78955-1.93554-2.78955a2.83788,2.83788,0,0,0-1.94922,1.00488v4.03516a2.7616,2.7616,0,0,0,1.78418.75C196.825,31.76184,197.72537,30.69641,197.72537,28.76135Z" transform="translate(-5.14432 -21.03674)"/><path class="a" d="M200.86112,30.8009c0-1.76953,1.5-2.68457,4.93457-3.05957-.01465-.96-.36036-1.79981-1.5752-1.79981a4.53825,4.53825,0,0,0-2.38476.83985l-.64454-1.16993a6.31592,6.31592,0,0,1,3.32911-1.07958c2.05566,0,3,1.30468,3,3.49462v4.96485h-1.40918l-.13575-.94531h-.05957a4.09877,4.09877,0,0,1-2.625,1.14062A2.27973,2.27973,0,0,1,200.86112,30.8009Zm4.93457.06054v-2.0249c-2.44532.28516-3.26954.915-3.26954,1.84522,0,.80957.55469,1.13965,1.29,1.13965A2.90641,2.90641,0,0,0,205.79569,30.86144Z" transform="translate(-5.14432 -21.03674)"/><path class="a" d="M209.96561,24.74182h1.41015l.13477,1.13964h.04492a3.9336,3.9336,0,0,1,2.73047-1.3496c1.75488,0,2.53418,1.16992,2.53418,3.26953v5.18994h-1.72461v-4.98c0-1.42481-.41992-1.99463-1.39453-1.99463a2.76108,2.76108,0,0,0-2.00977,1.125v5.84961h-1.72558Z" transform="translate(-5.14432 -21.03674)"/><path class="a" d="M218.6658,36.27648l.33008-1.35058a2.246,2.246,0,0,0,.60059.12012c.89941,0,1.4248-.66016,1.72461-1.54493l.165-.56933-3.26954-8.18994h1.76954l1.53027,4.24462c.23926.73487.49512,1.56055.75,2.3252h.07519c.21-.75.43457-1.5752.64454-2.3252l1.32031-4.24462h1.67969l-3.03028,8.74462c-.64453,1.76954-1.51465,2.95508-3.25488,2.95508A2.94707,2.94707,0,0,1,218.6658,36.27648Z" transform="translate(-5.14432 -21.03674)"/></svg>